# Blender 4.3.2
# www.blender.org
o Cube.002
v -2.900000 17.249743 2.500000
v -2.900000 17.249743 0.042957
v 2.900000 17.249743 2.500000
v 2.900000 17.249743 0.042957
v -2.900000 8.549742 2.500000
v -2.900000 8.549742 0.042957
v 2.900000 8.549742 2.500000
v 2.900000 8.549742 0.042957
v 0.000000 8.549742 0.042957
v -0.000000 17.249743 4.381613
v 0.000000 8.549742 4.381613
v -0.000000 17.249743 0.042957
vn 0.5443 -0.0000 0.8389
vn 1.0000 -0.0000 -0.0000
vn -0.0000 -1.0000 -0.0000
vn -0.0000 -0.0000 -1.0000
vn -0.0000 1.0000 -0.0000
vn -1.0000 -0.0000 -0.0000
vn -0.5443 -0.0000 0.8389
vt 0.625000 0.625000
vt 0.875000 0.625000
vt 0.875000 0.750000
vt 0.625000 0.750000
vt 0.375000 0.750000
vt 0.625000 1.000000
vt 0.375000 1.000000
vt 0.375000 0.125000
vt 0.625000 0.125000
vt 0.625000 0.250000
vt 0.375000 0.250000
vt 0.125000 0.625000
vt 0.375000 0.625000
vt 0.125000 0.750000
vt 0.625000 0.500000
vt 0.375000 0.500000
vt 0.125000 0.500000
vt 0.375000 0.000000
vt 0.625000 0.000000
vt 0.875000 0.500000
s 0
f 10/1/1 11/2/1 7/3/1 3/4/1
f 4/5/2 3/4/2 7/6/2 8/7/2
f 9/8/3 11/9/3 5/10/3 6/11/3
f 9/12/4 12/13/4 4/5/4 8/14/4
f 12/13/5 10/1/5 3/4/5 4/5/5
f 6/11/6 5/10/6 1/15/6 2/16/6
f 2/16/5 1/15/5 10/1/5 12/13/5
f 6/17/4 2/16/4 12/13/4 9/12/4
f 8/18/3 7/19/3 11/9/3 9/8/3
f 1/15/7 5/20/7 11/2/7 10/1/7
o Cube.001
v -8.438192 -1.377524 2.500000
v -8.438192 -1.377524 0.042957
v -8.438194 4.422476 2.500000
v -8.438194 4.422476 0.042957
v 8.438194 -1.377518 2.500000
v 8.438194 -1.377518 0.042957
v 8.438192 4.422482 2.500000
v 8.438192 4.422482 0.042957
v 8.438193 1.522482 0.042957
v -8.438193 -0.568108 3.163408
v 8.438193 3.185764 4.381613
v -8.438193 1.522476 0.042957
vn -0.0753 0.3772 0.9231
vn -0.0000 1.0000 -0.0000
vn 1.0000 -0.0000 -0.0000
vn -0.0000 -0.0000 -1.0000
vn -1.0000 -0.0000 -0.0000
vn -0.0000 -1.0000 -0.0000
vn 0.0150 -0.4280 0.9036
vt 0.625000 0.625000
vt 0.875000 0.625000
vt 0.875000 0.750000
vt 0.625000 0.750000
vt 0.375000 0.750000
vt 0.625000 1.000000
vt 0.375000 1.000000
vt 0.375000 0.125000
vt 0.625000 0.125000
vt 0.625000 0.250000
vt 0.375000 0.250000
vt 0.125000 0.625000
vt 0.375000 0.625000
vt 0.125000 0.750000
vt 0.625000 0.500000
vt 0.375000 0.500000
vt 0.125000 0.500000
vt 0.375000 0.000000
vt 0.625000 0.000000
vt 0.875000 0.500000
s 0
f 22/21/8 23/22/8 19/23/8 15/24/8
f 16/25/9 15/24/9 19/26/9 20/27/9
f 21/28/10 23/29/10 17/30/10 18/31/10
f 21/32/11 24/33/11 16/25/11 20/34/11
f 24/33/12 22/21/12 15/24/12 16/25/12
f 18/31/13 17/30/13 13/35/13 14/36/13
f 14/36/12 13/35/12 22/21/12 24/33/12
f 18/37/11 14/36/11 24/33/11 21/32/11
f 20/38/10 19/39/10 23/29/10 21/28/10
f 13/35/14 17/40/14 23/22/14 22/21/14
